<?xml version="1.0" standalone="no"?><!DOCTYPE svg PUBLIC "-//W3C//DTD SVG 1.1//EN" "http://www.w3.org/Graphics/SVG/1.1/DTD/svg11.dtd"><svg t="1767786126391" class="icon" viewBox="0 0 1072 1024" version="1.1" xmlns="http://www.w3.org/2000/svg" p-id="11294" xmlns:xlink="http://www.w3.org/1999/xlink" width="209.375" height="200"><path d="M409.6 611.132952l97.52381 130.048a24.380952 24.380952 0 0 1-19.504762 39.009524H292.571429a24.380952 24.380952 0 0 1-19.504762-39.009524l97.523809-130.048a24.380952 24.380952 0 0 1 39.009524 0z" fill="#FFFFFF" p-id="11295"></path><path d="M48.761905 48.761905m48.761905 0l585.142857 0q48.761905 0 48.761904 48.761905l0 390.095238q0 48.761905-48.761904 48.761904l-585.142857 0q-48.761905 0-48.761905-48.761904l0-390.095238q0-48.761905 48.761905-48.761905Z" fill="#3FB2FF" p-id="11296"></path><path d="M755.809524 998.790095a316.952381 316.952381 0 1 0 0-633.904762 316.952381 316.952381 0 0 0 0 633.904762z" fill="#3FB2FF" p-id="11297"></path><path d="M315.830857 204.8a24.380952 24.380952 0 0 1 44.714667 0.926476l64.853333 158.183619 32.475429-55.588571a24.380952 24.380952 0 0 1 16.774095-11.751619l4.291048-0.390095h90.063238a24.380952 24.380952 0 1 1 0 48.761904h-76.068572l-50.224762 86.308572a24.380952 24.380952 0 0 1-41.545143 0.975238l-2.096761-4.047238-62.415239-152.088381-24.917333 54.613333a24.380952 24.380952 0 0 1-18.139428 13.897143l-4.047239 0.341333H188.952381a24.380952 24.380952 0 1 1 0-48.761904h84.943238l41.935238-91.37981zM715.190857 512.78019a31.695238 31.695238 0 0 1 30.378667 22.723048l60.318476 203.483429a26.819048 26.819048 0 1 1-51.395048 15.262476l-54.515809-183.637333-75.678476 149.113904 61.44 0.048762c13.312 0 24.380952 9.752381 26.477714 22.479238l0.341333 4.388572a26.819048 26.819048 0 0 1-26.819047 26.819047H588.55619a31.695238 31.695238 0 0 1-28.281904-46.08l100.205714-197.241904a31.695238 31.695238 0 0 1 28.281905-17.359239h26.428952zM868.937143 590.262857a26.819048 26.819048 0 0 1 26.819047 26.819048v129.511619a26.819048 26.819048 0 1 1-53.638095 0v-129.511619a26.819048 26.819048 0 0 1 26.819048-26.819048z" fill="#FFFFFF" p-id="11298"></path><path d="M868.937143 571.343238a29.257143 29.257143 0 1 0 0-58.514286 29.257143 29.257143 0 0 0 0 58.514286z" fill="#FFFFFF" p-id="11299"></path></svg>