<?xml version="1.0" standalone="no"?><!DOCTYPE svg PUBLIC "-//W3C//DTD SVG 1.1//EN" "http://www.w3.org/Graphics/SVG/1.1/DTD/svg11.dtd"><svg t="1767788178921" class="icon" viewBox="0 0 1024 1024" version="1.1" xmlns="http://www.w3.org/2000/svg" p-id="17078" xmlns:xlink="http://www.w3.org/1999/xlink" width="200" height="200"><path d="M958.1 837.6l-414.9-719a36 36 0 0 0-62.4 0l-414.9 719c-13.9 24 3.4 53.9 31.1 53.9h830c27.7 0 45-29.9 31.1-53.9z m-798.7-18.1L512 208.6l352.6 610.9z" fill="#1880EC" p-id="17079"></path><path d="M476 384m36 0l0 0q36 0 36 36l0 184q0 36-36 36l0 0q-36 0-36-36l0-184q0-36 36-36Z" fill="#1880EC" p-id="17080"></path><path d="M512 740m-36 0a36 36 0 1 0 72 0 36 36 0 1 0-72 0Z" fill="#1880EC" p-id="17081"></path></svg>