<?xml version="1.0" standalone="no"?><!DOCTYPE svg PUBLIC "-//W3C//DTD SVG 1.1//EN" "http://www.w3.org/Graphics/SVG/1.1/DTD/svg11.dtd"><svg t="1767788122044" class="icon" viewBox="0 0 1024 1024" version="1.1" xmlns="http://www.w3.org/2000/svg" p-id="15051" xmlns:xlink="http://www.w3.org/1999/xlink" width="200" height="200"><path d="M92.900766 355.306213c15.795745 0 27.88766-12.113702 27.88766-27.88766v-141.617021a64.838809 64.838809 0 0 1 65.209191-65.209192h140.593021c15.817532 0 27.909447-12.091915 27.909447-27.887659s-12.091915-27.88766-27.887659-27.88766H185.888681a120.788426 120.788426 0 0 0-121.006298 120.984511v141.508085c0 14.880681 12.091915 27.996596 27.996596 27.996596z m837.719149 317.396425c-15.817532 0-27.931234 12.091915-27.931234 27.88766v136.82383a64.838809 64.838809 0 0 1-65.187404 65.187404h-137.69532c-15.817532 0-27.88766 12.091915-27.887659 27.887659 0 15.817532 12.070128 27.909447 27.887659 27.909447h137.782469a120.788426 120.788426 0 0 0 121.006297-121.006298v-136.802042c0-14.880681-12.091915-27.88766-27.996595-27.88766z m-93.031489-607.907404h-139.699745c-15.795745 0-27.88766 12.113702-27.88766 27.88766 0 15.817532 12.091915 27.909447 27.88766 27.909446h139.612596a64.838809 64.838809 0 0 1 65.187404 65.209192v142.401362c0 15.795745 12.113702 27.88766 27.909447 27.887659 15.795745 0 27.88766-12.091915 27.887659-27.887659V185.801532a120.635915 120.635915 0 0 0-120.897361-121.006298z m-512 837.806298H185.910468a64.838809 64.838809 0 0 1-65.209191-65.209192v-137.695319c0-15.795745-12.091915-27.88766-27.88766-27.887659-15.817532 0-27.909447 12.091915-27.909447 27.887659v137.804256a120.788426 120.788426 0 0 0 121.006298 121.006297h139.590809c15.795745 0 27.88766-12.113702 27.887659-27.887659a27.299404 27.299404 0 0 0-27.80051-28.018383z m-204.8-428.206298c-15.795745 0-27.88766 12.113702-27.88766 27.88766 0 15.817532 12.091915 27.909447 27.88766 27.909446h74.51234c15.795745 0 27.88766-12.091915 27.88766-27.887659s-12.091915-27.88766-27.88766-27.88766h-74.51234z m781.900255 55.906043c15.817532 0 27.909447-12.091915 27.909447-27.88766 0-15.817532-12.091915-27.909447-27.88766-27.909447h-74.51234c-15.795745 0-27.88766 12.091915-27.88766 27.88766 0 15.817532 12.091915 27.88766 27.88766 27.887659h74.51234z m-167.500255 186.106553a18.693447 18.693447 0 0 0-18.584511-18.606298h-53.095489c44.685617-60.503149 52.071489-170.397957 53.095489-185.191489 0.893277-10.218213-7.40766-18.606298-17.713021-19.499575-10.196426-0.915064-18.584511 7.40766-19.608511 17.691234-2.788766 41.003574-20.48 163.796426-69.784511 186.193702q-0.893277 0-1.895489 0.915064h-179.613957a18.693447 18.693447 0 0 0-18.584511 18.584511c0 10.196426 8.388085 18.606298 18.584511 18.606298h288.615489a18.715234 18.715234 0 0 0 18.584511-18.693447zM422.389106 433.500596c5.599319 8.409872 17.713021 10.196426 26.101107 4.706042 1.917277-1.895489 50.328511-35.404255 121.006298-114.513702l1.895489-1.895489a11.220426 11.220426 0 0 1 4.706043-4.706043c1.895489 0.915064 5.599319 3.70383 10.196425 8.409873 42.811915 41.003574 102.4 93.990128 145.211915 114.491914 2.788766 0.915064 5.599319 1.917277 8.388085 1.917277 6.514383 0 13.006979-3.70383 16.797958-10.218213a18.584511 18.584511 0 0 0-8.388086-25.098893c-40.001362-20.48-102.4-76.298894-135.908766-107.999319-17.691234-16.77617-31.700426-19.499574-36.297531-19.499575h-2.788766l-1.917277 0.915064c-12.091915 2.788766-22.28834 10.196426-29.783149 20.48q-67.017532 74.51234-113.620425 108.021106c-10.283574 5.381447-12.091915 16.580085-5.59932 24.989958z" fill="#1890FF" p-id="15052"></path><path d="M685.796766 446.507574a18.693447 18.693447 0 0 0-18.606298-18.606297h-186.193702a18.693447 18.693447 0 0 0-18.606298 18.606297c0 10.196426 8.409872 18.584511 18.606298 18.584511h77.301106c-3.70383 0-7.40766 0.915064-10.196425 2.810553a19.129191 19.129191 0 0 0-5.599319 26.101107c0 0.893277 38.193021 60.503149 43.705191 158.175319 0.893277 10.24 8.388085 17.713021 18.584511 17.713021h0.915064a19.368851 19.368851 0 0 0 17.691234-19.608511c-5.599319-107.084255-47.49617-174.08-49.304511-176.890553a17.843745 17.843745 0 0 0-14.902468-8.388085h107.999319a18.540936 18.540936 0 0 0 18.606298-18.519149z" fill="#1890FF" p-id="15053"></path><path d="M487.511149 480.909617a18.802383 18.802383 0 0 0-10.218213 24.18383c22.310128 52.115064 34.42383 107.999319 34.42383 164.798638 0 10.218213 8.388085 18.606298 18.584511 18.606298a18.693447 18.693447 0 0 0 18.606297-18.606298c0-62.398638-13.006979-121.899574-37.212595-179.701106-3.70383-9.281362-14.815319-13.900255-24.18383-9.281362z m-58.60766 62.398638c0 7.40766 4.706043 14.902468 12.091915 17.691234 1.895489 0.893277 4.706043 0.893277 6.514383 0.893277 7.40766 0 13.987404-4.684255 17.691234-12.091915 3.70383-8.409872 7.40766-18.606298-59.609872-128.501106 9.303149-0.893277 17.713021-8.409872 17.713021-18.606298a18.693447 18.693447 0 0 0-18.606298-18.584511h-17.691234v-77.301106a18.693447 18.693447 0 0 0-18.606298-18.606298 18.693447 18.693447 0 0 0-18.606297 18.606298v79.196596h-38.193022a18.693447 18.693447 0 0 0-18.606298 18.606297c0 10.196426 8.409872 18.584511 18.606298 18.584511h10.196426c-19.499574 108.914383-64.206979 174.101787-65.187404 174.995064-5.621106 8.409872-3.70383 19.499574 4.684255 26.101106 3.70383 1.917277 7.40766 3.70383 11.198638 3.70383a19.499574 19.499574 0 0 0 14.902468-7.40766c1.895489-2.788766 39.108085-56.777532 62.398639-149.89617v245.716426c0 10.196426 8.409872 18.584511 18.606297 18.58451a18.693447 18.693447 0 0 0 18.606298-18.58451V463.196596c20.48 35.404255 39.086298 69.893447 41.896851 80.111659z" fill="#1890FF" p-id="15054"></path></svg>